<?xml version="1.0" standalone="no"?>
<!DOCTYPE svg PUBLIC "-//W3C//DTD SVG 20010904//EN"
 "http://www.w3.org/TR/2001/REC-SVG-20010904/DTD/svg10.dtd">
<svg version="1.0" xmlns="http://www.w3.org/2000/svg"
 width="3968.000000pt" height="3968.000000pt" viewBox="0 0 3968.000000 3968.000000"
 preserveAspectRatio="xMidYMid meet">
<metadata>
Created by potrace 1.14, written by Peter Selinger 2001-2017
</metadata>
<g transform="translate(0.000000,3968.000000) scale(0.100000,-0.100000)"
fill="#000000" stroke="none">
<path d="M595 22590 c-75 -16 -142 -85 -151 -155 -1 -11 -12 -63 -24 -115 -12
-52 -24 -108 -26 -125 -3 -16 -7 -37 -10 -45 -3 -8 -8 -26 -11 -40 -2 -14 -16
-72 -30 -130 -14 -58 -27 -114 -29 -125 -17 -87 -27 -134 -35 -155 -4 -14 -10
-38 -13 -55 -2 -16 -16 -79 -31 -140 -15 -60 -29 -121 -31 -134 -3 -13 -9 -32
-15 -43 -5 -10 -8 -18 -5 -18 2 0 -4 -27 -14 -60 -10 -33 -16 -60 -13 -60 3 0
0 -7 -7 -15 -7 -8 -10 -15 -7 -15 3 0 -1 -21 -9 -47 -31 -96 -14 -184 48 -239
37 -35 70 -48 123 -50 52 -2 87 10 119 38 11 10 23 18 28 18 4 0 8 7 8 15 0 8
4 15 9 15 8 0 25 38 38 85 17 63 84 315 87 330 8 36 76 328 96 410 11 44 24
100 29 125 6 25 24 107 41 183 l32 138 92 -6 c50 -4 116 -8 146 -10 30 -2 55
-5 55 -5 0 -1 56 -5 202 -14 39 -2 76 -7 82 -10 5 -4 12 -2 16 4 4 6 10 8 14
5 12 -7 217 -18 463 -24 l28 -1 -6 -282 c-2 -156 -6 -386 -9 -513 -2 -126 -6
-363 -9 -525 -3 -162 -8 -423 -11 -580 -3 -157 -8 -400 -10 -540 -6 -310 -13
-695 -20 -1050 -4 -223 -11 -613 -19 -1050 -1 -52 -5 -100 -9 -106 -3 -6 -30
-12 -59 -13 -29 -1 -84 -4 -123 -6 -66 -4 -98 -7 -242 -21 -32 -3 -76 -7 -98
-9 -77 -7 -124 -27 -159 -66 -85 -94 -62 -239 48 -304 48 -28 85 -32 186 -21
101 12 104 12 195 20 44 4 94 9 110 11 213 27 1351 27 1600 -1 28 -3 73 -7
100 -9 103 -8 171 -15 200 -20 62 -9 143 -7 166 6 13 7 25 10 26 8 3 -9 73 63
87 89 56 107 -15 259 -128 276 -24 4 -54 9 -67 11 -22 4 -108 12 -214 20 -64
5 -267 18 -304 19 l-34 1 3 110 c3 122 5 217 15 575 3 135 8 315 10 400 3 85
7 241 10 345 2 105 7 278 10 385 2 107 7 278 10 380 7 261 14 534 20 750 10
390 15 552 20 760 4 118 8 287 11 375 2 88 6 228 8 310 2 83 5 170 5 195 l1
45 218 1 c221 1 686 12 800 19 55 4 62 2 62 -15 0 -10 9 -62 20 -117 12 -54
23 -109 26 -123 3 -21 11 -53 19 -80 1 -3 5 -25 9 -50 4 -25 24 -110 43 -190
19 -80 37 -152 38 -160 27 -118 122 -416 148 -462 24 -44 86 -88 131 -94 68
-9 107 6 166 65 31 31 57 65 58 76 7 72 0 113 -38 225 -34 104 -55 181 -115
420 -5 18 -54 227 -60 255 -11 49 -66 337 -69 362 -2 16 -5 28 -6 28 -1 0 -3
9 -5 20 -2 11 -7 36 -10 55 -4 19 -9 46 -12 60 -2 14 -8 27 -14 28 -5 2 -9 9
-9 14 0 6 -17 26 -37 44 -44 39 -105 55 -188 49 -33 -2 -89 -6 -125 -9 -214
-16 -457 -20 -1145 -20 -423 1 -862 4 -975 7 -284 10 -472 17 -555 22 -38 2
-122 6 -185 9 -213 11 -512 34 -651 51 -93 11 -123 12 -154 5z"/>
<path d="M36960 22567 c-105 -38 -159 -165 -113 -260 40 -81 90 -109 213 -122
57 -6 121 -13 178 -21 46 -6 215 -17 279 -18 29 -1 54 -3 54 -6 6 -23 2 -1500
-3 -1500 -5 0 -17 9 -28 20 -11 11 -24 20 -29 20 -5 0 -11 3 -13 8 -3 6 -47
35 -168 111 -14 8 -27 16 -30 16 -3 1 -36 16 -75 35 -38 18 -74 34 -80 35 -5
2 -44 14 -85 28 -41 14 -86 28 -100 31 -14 3 -36 8 -50 11 -32 8 -56 12 -105
20 -22 4 -53 9 -70 11 -57 9 -341 11 -410 3 -81 -10 -132 -18 -160 -24 -54
-11 -182 -46 -200 -54 -20 -9 -49 -19 -63 -22 -33 -6 -257 -131 -327 -181 -84
-61 -235 -201 -290 -269 -88 -108 -116 -148 -177 -254 -56 -96 -143 -271 -137
-277 1 -2 -4 -14 -11 -28 -8 -14 -15 -30 -16 -36 -1 -6 -9 -27 -17 -45 -28
-62 -77 -230 -112 -380 -5 -22 -33 -212 -40 -270 -27 -230 -23 -548 10 -719 3
-14 7 -38 10 -55 6 -39 14 -75 33 -150 25 -98 44 -158 63 -202 12 -27 22 -55
24 -64 13 -63 180 -353 257 -446 72 -87 291 -283 316 -283 4 0 17 -8 28 -17
25 -23 48 -36 154 -89 121 -60 229 -93 410 -123 59 -10 368 -8 410 2 14 4 50
12 80 18 85 18 246 77 346 129 178 91 352 237 482 405 93 119 103 134 144 214
15 30 29 53 29 50 1 -2 2 -152 3 -334 2 -291 4 -334 20 -366 45 -95 141 -143
231 -117 17 5 38 11 48 13 10 2 26 6 35 9 9 3 33 8 52 11 19 3 51 10 70 15 19
5 46 11 60 14 100 17 150 26 185 31 23 3 51 7 63 10 12 2 54 7 92 10 38 3 80
8 92 11 84 16 531 23 818 12 126 -4 221 77 221 190 1 57 -10 88 -46 130 -48
58 -88 71 -230 77 -49 3 -90 5 -90 5 0 1 -63 2 -140 3 l-140 2 -5 2456 -5
2455 -24 36 c-56 82 -134 102 -281 73 -91 -18 -99 -19 -230 -32 -97 -9 -678
-10 -790 -1 -41 4 -109 9 -150 12 -95 8 -172 14 -230 20 -143 14 -207 15 -240
3z m-215 -1982 c55 -9 108 -21 118 -26 9 -6 17 -8 17 -5 0 16 183 -61 294
-124 104 -58 295 -238 296 -277 0 -7 4 -13 10 -13 5 0 29 -39 52 -87 l42 -88
1 -441 c1 -462 -7 -579 -50 -727 -8 -27 -14 -52 -14 -55 1 -4 0 -10 -1 -14 -4
-11 -6 -19 -14 -53 -4 -16 -11 -39 -16 -50 -4 -11 -25 -69 -45 -130 -20 -60
-46 -130 -57 -155 -11 -25 -27 -61 -35 -80 -55 -127 -181 -346 -213 -370 -4
-3 -11 -12 -16 -21 -27 -49 -169 -201 -251 -269 -138 -115 -299 -188 -458
-208 -65 -8 -226 -8 -290 1 -102 14 -290 76 -307 101 -4 6 -8 7 -8 3 0 -8 -84
46 -108 70 -7 7 -17 13 -22 13 -16 0 -196 184 -231 235 -19 28 -37 52 -40 55
-8 7 -88 154 -87 160 1 3 -9 25 -22 49 -20 41 -46 104 -56 141 -2 8 -11 40
-19 70 -9 30 -18 66 -20 80 -3 14 -9 46 -14 71 -50 237 -43 599 16 874 8 39
17 81 19 95 6 29 42 158 51 180 4 8 7 17 8 20 3 9 17 45 47 125 53 136 162
330 238 420 70 84 206 210 276 255 156 102 342 172 490 185 25 2 48 5 50 8 11
10 280 -2 369 -18z"/>
<path d="M20763 22521 c-90 -35 -133 -96 -133 -186 0 -107 61 -174 176 -194
140 -24 141 -24 279 -36 44 -4 87 -9 95 -11 8 -1 29 -3 45 -3 l31 -1 0 -2290
c0 -2065 -1 -2290 -15 -2291 -9 -1 -36 -3 -61 -4 -25 -2 -45 -4 -45 -6 0 -1
-16 -3 -35 -4 -19 -2 -48 -5 -65 -8 -16 -3 -59 -9 -95 -12 -36 -4 -74 -9 -85
-11 -10 -2 -37 -6 -60 -10 -86 -12 -154 -65 -173 -134 -10 -37 -4 -127 10
-155 46 -88 109 -113 238 -97 47 6 94 13 105 15 11 3 43 8 70 11 28 4 64 9 80
12 39 7 86 12 165 19 36 4 88 8 115 11 283 25 792 24 1020 -1 22 -2 63 -7 90
-10 28 -2 61 -7 75 -9 14 -3 43 -7 65 -10 22 -3 83 -12 135 -22 130 -23 181
-21 227 7 49 29 94 79 101 109 17 73 5 140 -35 185 -47 53 -100 73 -238 90
-65 8 -105 13 -190 26 l-71 11 3 1367 c5 2970 4 3497 -7 3522 -44 103 -137
152 -240 125 -35 -9 -201 -33 -290 -42 -41 -4 -214 -8 -385 -7 -282 0 -387 4
-501 17 -21 2 -68 7 -104 11 -36 4 -74 9 -85 11 -25 5 -101 15 -141 18 -17 2
-49 -4 -71 -13z"/>
<path d="M15385 21023 c-95 -33 -146 -105 -139 -200 9 -136 98 -186 368 -209
44 -4 88 -8 96 -9 16 -2 34 -47 43 -105 7 -49 62 -306 88 -415 11 -49 23 -99
25 -109 2 -10 8 -33 13 -50 8 -25 44 -156 55 -201 2 -5 6 -17 9 -25 10 -28 66
-215 67 -223 0 -4 7 -24 16 -45 13 -29 42 -115 49 -142 1 -3 9 -23 18 -44 10
-21 23 -57 31 -80 14 -40 95 -241 121 -301 118 -268 228 -491 323 -657 12 -21
31 -55 43 -75 12 -21 28 -46 37 -55 8 -10 11 -18 7 -18 -4 0 -1 -8 7 -17 8
-10 32 -47 54 -83 21 -36 42 -69 46 -75 5 -5 41 -59 80 -120 40 -60 77 -116
84 -122 7 -7 22 -29 35 -50 13 -21 29 -42 36 -46 7 -4 13 -14 13 -22 0 -7 4
-15 8 -17 4 -1 23 -23 42 -48 226 -290 448 -538 512 -571 62 -32 150 -29 185
7 8 7 22 19 32 26 18 14 151 205 151 218 0 5 3 10 8 12 27 12 364 569 557 923
109 198 325 629 361 717 10 27 22 48 27 48 4 0 7 6 7 14 0 8 6 27 14 43 23 44
63 135 117 267 27 66 54 130 59 141 5 11 23 56 40 100 17 44 35 89 40 100 13
29 113 306 148 410 55 165 148 486 165 571 15 69 21 84 36 85 9 0 23 2 31 3 8
2 44 7 80 11 36 4 76 8 90 10 36 5 150 28 200 40 11 3 28 7 38 9 64 15 109 52
140 113 70 136 -73 310 -223 272 -40 -11 -94 -21 -125 -25 -14 -1 -25 -3 -25
-4 0 -3 -101 -19 -170 -26 -22 -3 -81 -6 -130 -9 -50 -2 -95 -4 -100 -5 -6 -1
-12 -2 -15 -1 -3 1 -63 4 -135 6 -71 3 -141 7 -155 10 -14 3 -44 8 -66 11 -23
2 -53 7 -65 9 -13 3 -44 8 -69 11 -25 3 -47 8 -50 9 -3 2 -26 6 -50 10 -25 4
-47 7 -50 8 -17 4 -90 -15 -90 -24 0 -5 -4 -8 -9 -5 -4 3 -25 -11 -45 -31 -57
-57 -74 -149 -40 -215 30 -61 85 -105 138 -113 12 -2 32 -6 46 -9 14 -3 35 -8
48 -11 87 -20 141 -29 247 -40 95 -11 129 -16 131 -18 1 -1 -11 -47 -27 -102
-16 -55 -30 -109 -31 -120 -2 -11 -6 -24 -9 -30 -3 -5 -14 -39 -24 -75 -21
-74 -150 -460 -169 -505 -7 -16 -23 -59 -36 -95 -13 -36 -27 -69 -32 -74 -4
-6 -8 -16 -8 -23 0 -7 -11 -37 -25 -67 -14 -30 -25 -57 -25 -60 0 -4 -9 -25
-19 -49 -11 -23 -36 -82 -57 -132 -20 -49 -54 -128 -76 -173 -21 -46 -38 -86
-38 -87 0 -13 -94 -201 -104 -207 -6 -4 -7 -8 -3 -8 7 0 -200 -418 -213 -430
-3 -3 -21 -36 -40 -73 -19 -38 -38 -71 -41 -73 -7 -4 -89 109 -89 122 0 4 -8
17 -19 28 -24 27 -141 214 -141 227 0 5 -4 9 -10 9 -5 0 -10 4 -10 9 0 5 -19
39 -41 77 -41 67 -52 86 -123 218 -44 80 -177 346 -199 396 -8 19 -24 55 -35
80 -11 25 -31 74 -45 110 -14 36 -31 79 -38 95 -7 17 -13 32 -14 35 -1 3 -4
12 -8 20 -3 8 -27 74 -53 145 -25 72 -50 139 -55 150 -7 17 -68 213 -76 240
-1 6 -12 44 -23 85 -31 108 -78 292 -84 323 -2 15 -7 31 -11 37 -3 5 2 10 12
11 57 3 131 12 228 28 141 24 136 23 159 44 11 9 23 17 27 17 3 0 18 18 33 41
49 73 39 178 -21 241 -27 29 -83 64 -83 53 0 -3 -8 -2 -17 3 -12 6 -49 5 -102
-4 -104 -17 -205 -30 -286 -38 -22 -2 -71 -7 -110 -11 -38 -4 -89 -8 -112 -10
-23 -2 -46 -6 -52 -10 -6 -3 -11 -2 -11 3 0 5 -19 6 -42 2 -86 -12 -688 0
-768 16 -14 2 -50 7 -80 9 -55 5 -122 12 -170 20 -14 2 -50 6 -80 9 -31 3 -76
10 -101 14 -31 6 -57 5 -84 -5z"/>
<path d="M12777 20983 c-1 0 -47 -4 -102 -8 -101 -6 -159 -11 -205 -19 -14 -2
-45 -7 -70 -10 -120 -18 -366 -88 -470 -133 -324 -141 -513 -289 -738 -578
-49 -63 -155 -261 -192 -355 -11 -30 -25 -64 -30 -75 -18 -41 -51 -153 -71
-245 -28 -128 -26 -120 -34 -181 -3 -30 -8 -66 -10 -80 -6 -33 -17 -170 -16
-186 1 -7 1 -21 1 -30 -5 -266 8 -400 57 -603 14 -58 26 -109 27 -115 1 -5 4
-14 7 -20 4 -5 14 -35 24 -65 10 -30 22 -61 28 -67 5 -7 7 -13 4 -13 -6 0 108
-229 137 -275 43 -67 91 -140 96 -145 3 -3 25 -32 50 -65 51 -68 233 -254 299
-306 24 -19 48 -39 55 -44 24 -22 147 -105 156 -105 5 0 13 -7 18 -16 5 -9 12
-15 16 -14 4 1 24 -9 44 -21 20 -13 39 -23 42 -24 3 0 25 -12 50 -25 83 -45
230 -105 330 -135 3 -1 12 -5 20 -8 17 -7 159 -43 205 -52 17 -3 39 -8 50 -10
181 -35 524 -40 707 -10 13 2 40 6 61 9 93 14 117 19 202 41 202 53 365 118
483 192 29 18 55 33 58 33 8 0 103 79 133 110 33 35 105 130 120 158 16 31 11
121 -8 152 -47 74 -106 113 -176 116 -62 2 -117 -29 -182 -106 -120 -141 -381
-272 -608 -305 -22 -4 -48 -9 -58 -11 -31 -10 -240 -6 -287 5 -25 5 -56 12
-70 15 -70 14 -240 90 -240 108 0 4 -5 8 -12 8 -14 0 -22 7 -124 107 -44 43
-99 106 -122 140 -43 63 -142 254 -142 273 0 5 -4 18 -10 28 -13 23 -63 196
-74 256 -3 15 -10 54 -17 89 -15 83 -18 102 -23 169 l-5 56 32 -9 c18 -6 39
-12 47 -14 58 -14 116 -26 146 -31 20 -3 46 -8 58 -10 11 -2 35 -6 51 -9 17
-3 41 -7 55 -10 14 -3 45 -7 70 -10 25 -3 72 -8 105 -12 80 -9 533 -9 615 1
35 4 80 9 100 11 19 2 49 6 65 9 17 3 50 7 75 10 25 3 54 7 65 10 11 2 40 7
65 10 25 3 56 8 70 11 28 6 60 12 104 20 24 5 80 18 166 40 8 2 16 4 18 5 1 2
5 3 10 4 42 9 172 58 232 89 111 57 164 97 201 150 36 53 45 96 45 209 -1 43
3 78 7 78 5 0 6 3 4 8 -3 4 -8 75 -12 157 -9 179 -12 220 -31 325 -18 97 -24
129 -33 158 -5 18 -10 35 -10 37 -1 18 -38 133 -63 200 -72 193 -191 377 -330
510 -73 71 -189 162 -238 187 -14 7 -27 15 -30 18 -10 11 -181 90 -193 90 -7
0 -17 4 -22 9 -11 10 -186 67 -226 74 -13 2 -31 7 -39 10 -8 3 -31 8 -50 11
-19 3 -44 7 -55 10 -11 2 -42 7 -70 10 -27 4 -63 9 -80 12 -16 3 -59 7 -95 9
-36 2 -65 4 -65 5 0 2 -147 5 -148 3z m396 -417 c52 -7 187 -46 257 -73 72
-28 193 -92 198 -105 2 -4 10 -8 18 -8 8 0 14 -4 14 -10 0 -5 5 -10 10 -10 29
0 190 -165 255 -261 103 -152 188 -367 210 -533 3 -27 8 -53 11 -58 3 -4 7
-39 9 -78 2 -38 5 -73 8 -77 2 -5 5 -63 6 -130 l2 -122 -48 -21 c-26 -12 -106
-41 -178 -65 -128 -42 -153 -50 -235 -69 -135 -32 -349 -65 -407 -62 -18 1
-33 -1 -33 -5 0 -3 -102 -5 -227 -4 -212 2 -306 7 -393 20 -19 3 -51 8 -70 11
-19 2 -44 6 -55 8 -11 2 -38 7 -60 11 -37 7 -187 42 -278 66 l-39 10 6 107 c6
101 11 156 21 227 2 17 7 53 10 80 13 101 57 306 75 350 5 11 12 31 16 45 13
51 68 185 79 192 5 4 6 8 2 8 -13 0 68 139 126 215 133 175 348 310 543 341
21 3 40 7 42 9 3 3 29 1 105 -9z"/>
<path d="M26078 20955 c-2 -1 -55 -5 -118 -8 -63 -4 -128 -9 -145 -12 -60 -10
-100 -17 -125 -21 -14 -2 -34 -6 -45 -8 -11 -3 -49 -13 -85 -21 -36 -9 -69
-18 -75 -19 -5 -1 -14 -4 -20 -7 -5 -4 -41 -17 -80 -29 -38 -12 -79 -27 -90
-33 -11 -6 -24 -12 -30 -13 -16 -3 -110 -46 -115 -53 -3 -3 -27 -17 -55 -30
-53 -26 -255 -156 -292 -187 -11 -11 -41 -35 -65 -54 -88 -71 -222 -213 -305
-325 -29 -38 -56 -74 -60 -80 -19 -24 -65 -98 -74 -118 -5 -12 -18 -37 -29
-54 -19 -32 -80 -169 -84 -188 -1 -5 -4 -14 -8 -20 -7 -12 -48 -158 -54 -194
-3 -14 -7 -32 -9 -40 -3 -7 -8 -58 -12 -112 -7 -119 8 -168 67 -222 43 -39 82
-52 148 -50 75 2 164 71 176 134 3 13 5 24 6 24 0 0 2 34 4 75 13 272 195 604
441 806 93 76 253 167 315 178 14 2 25 5 25 6 0 14 247 21 306 9 80 -17 94
-20 139 -33 112 -34 303 -146 395 -233 106 -100 219 -258 274 -383 45 -104 60
-141 67 -165 1 -5 9 -37 18 -70 9 -33 18 -71 20 -85 11 -67 18 -130 19 -175
l1 -50 -69 -1 c-77 -2 -293 -13 -340 -18 -98 -11 -162 -18 -175 -21 -8 -1 -42
-6 -75 -10 -69 -8 -266 -47 -357 -71 -35 -9 -70 -18 -78 -19 -8 -2 -15 -4 -15
-5 0 -1 -7 -3 -15 -5 -42 -9 -130 -35 -170 -50 -25 -9 -49 -18 -55 -19 -5 -2
-19 -7 -30 -11 -101 -40 -181 -69 -187 -67 -5 1 -8 -2 -8 -8 0 -5 -5 -10 -11
-10 -5 0 -45 -17 -87 -39 -106 -53 -123 -63 -159 -88 -17 -13 -34 -23 -37 -23
-4 0 -12 -4 -19 -10 -7 -5 -46 -36 -87 -67 -94 -72 -204 -180 -261 -258 -24
-33 -46 -62 -49 -65 -11 -11 -43 -69 -75 -137 -32 -70 -67 -191 -81 -283 -13
-85 -5 -295 12 -322 3 -5 7 -19 10 -33 20 -112 158 -298 283 -382 31 -21 58
-40 61 -43 5 -5 102 -53 110 -54 3 -1 19 -6 35 -13 37 -14 70 -25 70 -23 0 1
14 -4 30 -10 64 -25 221 -46 330 -44 106 1 221 11 234 18 3 2 24 7 45 10 61
10 202 51 261 77 11 5 43 17 70 28 119 45 364 182 430 239 6 5 24 17 40 28 17
10 35 24 40 30 6 5 35 30 65 54 82 66 121 102 257 238 l123 123 -5 -48 c-2
-26 -7 -84 -11 -128 -7 -88 -11 -130 -13 -130 -1 0 -4 -22 -6 -50 -2 -27 -7
-70 -10 -95 -13 -92 -12 -164 1 -196 19 -46 61 -92 103 -114 48 -24 97 -21
246 18 119 31 270 66 333 76 47 9 88 15 125 21 17 3 43 7 57 10 14 2 48 7 75
10 28 3 75 8 105 11 104 11 125 13 240 19 129 6 448 8 525 2 91 -7 144 20 192
97 21 33 26 53 26 102 -1 66 -11 93 -52 137 -45 49 -78 60 -186 64 -151 6
-261 7 -355 2 l-85 -4 2 95 c9 515 -2 951 -32 1270 -9 91 -24 214 -30 250 -3
14 -7 39 -9 55 -8 58 -18 120 -22 135 -6 30 -46 206 -54 240 -40 171 -124 393
-207 550 -120 228 -280 414 -463 541 -36 24 -67 47 -70 50 -16 21 -328 158
-375 165 -5 1 -12 3 -15 4 -3 1 -14 4 -25 6 -11 2 -49 10 -85 18 -84 19 -149
26 -280 32 -58 2 -115 6 -127 8 -13 2 -24 2 -25 1z m492 -2254 c3 -1 6 -27 6
-58 0 -32 3 -92 7 -133 6 -80 9 -70 -68 -198 -28 -47 -100 -147 -107 -150 -4
-2 -8 -10 -8 -18 0 -8 -4 -14 -10 -14 -5 0 -10 -5 -10 -11 0 -6 -6 -16 -12
-24 -28 -29 -48 -56 -48 -64 0 -5 -4 -11 -8 -13 -5 -1 -35 -34 -67 -73 -73
-87 -243 -255 -321 -316 -72 -56 -188 -134 -193 -130 -2 1 -7 -1 -10 -7 -17
-26 -190 -105 -371 -170 -104 -37 -361 -58 -475 -38 -76 13 -100 19 -125 29
-14 6 -27 11 -30 12 -99 34 -214 149 -237 237 -8 31 -9 184 -1 228 13 70 39
141 76 202 50 85 199 233 302 300 71 46 222 130 240 133 3 0 21 8 40 17 38 17
69 28 73 26 1 -1 13 4 26 11 27 15 178 68 212 75 13 3 40 10 59 16 19 6 42 13
50 15 8 2 47 11 85 20 85 20 124 28 148 29 9 0 17 3 17 6 0 3 10 5 23 6 24 1
97 11 136 19 23 4 83 12 161 20 19 2 85 7 145 10 61 4 111 8 112 8 1 2 171 -1
183 -2z"/>
<path d="M8548 20839 c-53 -9 -121 -25 -150 -34 -205 -67 -420 -220 -572 -409
l-47 -58 2 90 c1 49 -1 94 -5 100 -3 6 -2 13 2 16 14 8 2 97 -18 141 -47 100
-119 134 -235 111 -105 -22 -187 -31 -360 -42 -117 -7 -516 -7 -650 0 -170 10
-281 17 -315 21 -19 3 -71 7 -115 10 -44 3 -93 9 -110 12 -162 34 -290 -66
-272 -212 7 -57 10 -67 30 -89 9 -11 17 -23 17 -27 0 -10 79 -47 115 -53 17
-3 41 -8 55 -11 13 -2 54 -7 90 -11 36 -3 77 -7 93 -9 52 -7 172 -16 257 -20
l85 -4 0 -1398 c0 -925 -3 -1398 -10 -1399 -20 -1 -160 -16 -175 -19 -8 -2
-35 -6 -60 -10 -50 -8 -75 -13 -75 -15 0 -1 -16 -3 -35 -5 -86 -9 -184 -31
-219 -49 -94 -50 -129 -196 -67 -285 16 -22 39 -47 52 -56 29 -19 131 -34 167
-24 15 4 49 10 75 14 26 3 54 8 62 10 8 2 33 6 55 10 22 3 67 10 100 15 112
17 150 22 195 25 25 2 61 6 80 10 19 3 73 8 120 10 47 3 85 5 85 6 0 6 114 9
320 9 278 -1 365 -3 365 -10 0 -3 17 -5 38 -6 49 -1 184 -14 302 -31 25 -3 56
-7 70 -9 14 -2 54 -8 90 -14 36 -6 79 -13 95 -15 17 -2 39 -6 50 -8 154 -33
234 -20 295 50 35 39 45 62 49 104 8 115 -77 209 -203 224 -22 3 -52 7 -66 10
-33 6 -89 15 -120 20 -14 2 -40 6 -57 9 -60 11 -88 15 -147 22 -33 3 -67 8
-75 9 -9 2 -19 4 -22 4 -3 1 -4 256 -3 569 1 312 3 650 3 752 0 102 0 199 1
216 2 81 10 231 14 254 11 65 41 183 64 255 14 44 27 82 27 85 1 3 7 19 14 35
7 17 14 35 15 40 3 9 12 31 66 150 62 138 204 309 330 397 67 47 181 105 222
114 132 28 173 33 283 29 66 -2 137 -8 158 -14 20 -5 37 -7 37 -4 0 3 6 0 13
-6 8 -6 22 -12 33 -14 76 -15 214 -81 214 -103 0 -10 -6 -11 -22 -6 -27 10
-67 6 -168 -13 -149 -29 -328 -155 -413 -292 -156 -250 -146 -530 29 -774 31
-43 117 -123 152 -143 10 -5 19 -12 22 -15 10 -12 97 -52 157 -71 53 -17 172
-35 208 -32 6 1 31 3 56 5 25 3 54 7 65 10 10 4 33 8 49 11 65 11 192 86 267
159 123 118 183 234 234 449 3 13 7 81 8 153 6 352 -132 645 -396 848 -139
106 -339 192 -515 222 -18 3 -48 8 -65 11 -78 14 -295 11 -390 -7z"/>
<path d="M32197 20844 c-1 -1 -31 -5 -67 -8 -130 -13 -304 -53 -385 -90 -216
-98 -318 -167 -465 -315 -63 -64 -131 -140 -150 -169 -19 -28 -37 -52 -40 -52
-3 0 -5 89 -5 198 0 108 -4 213 -9 232 -6 19 -31 56 -56 81 -65 65 -102 72
-230 44 -14 -3 -45 -8 -70 -11 -25 -3 -48 -8 -51 -10 -39 -23 -834 -23 -1079
1 -25 2 -76 7 -115 10 -135 11 -190 16 -225 22 -82 13 -140 -5 -193 -62 -41
-43 -55 -86 -51 -149 4 -54 16 -79 53 -119 39 -43 83 -58 206 -72 28 -4 68 -9
90 -11 57 -7 122 -12 260 -19 65 -3 122 -8 125 -11 7 -7 8 -2854 0 -2859 -4
-2 -45 -8 -160 -20 -51 -6 -126 -16 -145 -20 -11 -2 -42 -7 -70 -11 -27 -3
-53 -8 -56 -10 -4 -2 -24 -6 -44 -10 -68 -11 -77 -13 -103 -30 -43 -28 -70
-67 -82 -116 -30 -121 51 -246 160 -248 41 -1 115 5 115 10 0 2 23 6 75 13 25
4 54 8 66 11 12 2 45 8 75 11 30 4 63 9 74 10 29 4 125 16 160 20 26 4 69 7
255 21 124 9 608 2 700 -10 25 -3 77 -8 115 -11 39 -2 86 -6 105 -9 19 -3 64
-8 100 -11 36 -3 88 -8 115 -11 28 -4 59 -6 70 -5 10 0 24 -3 30 -8 22 -16 82
-1 128 31 52 37 79 83 84 148 5 51 2 65 -21 105 -40 68 -99 101 -201 110 -182
18 -187 19 -200 27 -11 6 -12 276 -1 303 3 8 2 15 -2 15 -4 0 -6 42 -4 92 4
112 3 159 -4 169 -2 4 -1 10 4 13 5 3 7 20 5 38 -2 18 -3 56 -3 83 1 28 3 277
5 555 2 278 6 516 9 530 4 14 9 42 11 63 2 21 6 41 9 46 3 4 7 21 10 37 9 49
46 154 83 233 19 42 39 85 44 96 5 11 15 29 21 39 7 11 32 50 55 87 23 37 50
77 60 90 68 83 149 171 194 209 28 25 59 52 68 60 53 50 281 175 337 186 12 2
40 10 63 19 23 8 42 14 44 14 1 -1 31 2 67 6 135 14 217 9 305 -17 90 -27 135
-56 211 -133 57 -59 154 -201 154 -228 0 -7 4 -17 9 -22 5 -6 23 -52 40 -103
70 -209 96 -436 94 -802 -1 -198 -4 -255 -18 -410 -3 -30 -7 -77 -9 -105 -4
-54 -14 -144 -21 -185 -2 -14 -7 -47 -10 -75 -5 -47 -7 -65 -21 -155 -3 -19
-7 -51 -9 -70 -2 -19 -5 -36 -6 -37 -3 -5 -5 -16 -13 -78 -8 -60 -11 -80 -21
-125 -10 -48 -15 -75 -21 -110 -3 -19 -12 -63 -21 -98 -8 -35 -16 -68 -18 -75
-1 -7 -6 -27 -10 -44 -4 -18 -10 -33 -14 -34 -3 0 -15 -2 -26 -5 -11 -2 -49
-6 -85 -9 -36 -3 -78 -7 -95 -9 -26 -4 -81 -10 -195 -21 -74 -8 -134 -16 -140
-20 -4 -3 -32 -7 -61 -11 -89 -11 -145 -47 -181 -118 -66 -130 68 -306 207
-273 11 3 45 8 75 12 30 4 64 9 75 11 11 2 38 6 60 8 22 3 67 8 100 12 200 23
321 29 570 29 218 0 416 -8 550 -21 118 -12 180 -11 215 3 50 20 89 57 111
109 24 53 18 100 -20 169 -31 56 -86 90 -156 99 -98 13 -226 22 -415 30 -189
9 -181 6 -164 62 7 25 13 49 13 52 -1 4 0 9 1 12 3 10 22 111 35 190 3 19 8
43 11 53 3 10 7 35 9 55 2 20 6 46 8 57 10 46 23 128 32 210 3 28 8 61 10 75
2 14 7 50 10 80 3 30 8 66 10 80 2 14 6 57 9 95 4 39 9 86 11 105 28 191 33
634 11 830 -3 30 -8 77 -11 104 -7 71 -15 127 -29 186 -3 14 -8 36 -10 50 -20
109 -83 300 -141 425 -83 179 -199 326 -330 420 -59 42 -135 84 -145 81 -3 0
-17 6 -30 15 -24 15 -37 20 -110 40 -78 21 -159 32 -263 33 -49 1 -89 0 -90 0z"/>
</g>
</svg>
