<?xml version="1.0" encoding="utf-8"?><svg xmlns="http://www.w3.org/2000/svg" xmlns:xlink="http://www.w3.org/1999/xlink"><symbol fill="none" viewBox="0 0 14 12" id="arrows-left" xmlns="http://www.w3.org/2000/svg"><path d="M6 11 1 6l5-5m7 10L8 6l5-5" stroke="#000" stroke-width="2" stroke-linecap="round" stroke-linejoin="round"/></symbol><symbol fill="none" viewBox="0 0 14 12" id="arrows-right" xmlns="http://www.w3.org/2000/svg"><path d="m8 11 5-5-5-5M1 11l5-5-5-5" stroke="#000" stroke-width="2" stroke-linecap="round" stroke-linejoin="round"/></symbol><symbol fill="none" viewBox="0 0 11 16" id="location" xmlns="http://www.w3.org/2000/svg"><path d="M5.43 6.515a1.086 1.086 0 1 0 0-2.171 1.086 1.086 0 0 0 0 2.171Z" fill="#FC1200"/><path d="M5.43 0C2.435 0 0 2.33 0 5.192c0 1.363.621 3.175 1.847 5.387.984 1.776 2.122 3.382 2.714 4.182a1.077 1.077 0 0 0 1.738 0c.591-.8 1.73-2.405 2.715-4.182 1.223-2.21 1.844-4.024 1.844-5.387C10.858 2.329 8.423 0 5.43 0Zm0 7.6a2.172 2.172 0 1 1 0-4.343 2.172 2.172 0 0 1 0 4.344Z" fill="#FC1200"/></symbol><symbol fill="none" viewBox="0 0 22 20" id="star" xmlns="http://www.w3.org/2000/svg"><path d="M10.383.464a.5.5 0 0 1 .95 0l2.107 6.482a.5.5 0 0 0 .476.346h6.816a.5.5 0 0 1 .294.904l-5.514 4.007a.5.5 0 0 0-.182.559l2.106 6.483a.5.5 0 0 1-.77.559l-5.514-4.007a.5.5 0 0 0-.587 0L5.05 19.804a.5.5 0 0 1-.77-.56l2.107-6.482a.5.5 0 0 0-.182-.56L.691 8.197a.5.5 0 0 1 .294-.904H7.8a.5.5 0 0 0 .475-.346L10.383.464Z" fill="#FFC700"/></symbol></svg>